<svg width="33" height="25" viewBox="0 0 33 25" fill="none" xmlns="http://www.w3.org/2000/svg">
<path d="M30.9285 20.75C30.9285 21.297 30.7113 21.8216 30.3245 22.2084C29.9377 22.5952 29.4131 22.8125 28.8662 22.8125H4.11756C3.57059 22.8125 3.04601 22.5952 2.65924 22.2084C2.27247 21.8216 2.05518 21.297 2.05518 20.75V8.375C2.05518 7.82799 2.27247 7.30339 2.65924 6.91659C3.04601 6.5298 3.57059 6.3125 4.11756 6.3125H6.53468C8.17476 6.3116 9.74739 5.65952 10.9069 4.49956L12.6187 2.79181C13.0044 2.406 13.5272 2.18871 14.0727 2.1875H18.9069C19.4538 2.18762 19.9783 2.40499 20.365 2.79181L22.0727 4.49956C22.6473 5.07441 23.3296 5.5304 24.0805 5.84147C24.8314 6.15254 25.6363 6.3126 26.449 6.3125H28.8662C29.4131 6.3125 29.9377 6.5298 30.3245 6.91659C30.7113 7.30339 30.9285 7.82799 30.9285 8.375V20.75ZM4.11756 4.25C3.02361 4.25 1.97446 4.6846 1.20091 5.45818C0.42737 6.23177 -0.00720215 7.28098 -0.00720215 8.375L-0.00720215 20.75C-0.00720215 21.844 0.42737 22.8932 1.20091 23.6668C1.97446 24.4404 3.02361 24.875 4.11756 24.875H28.8662C29.9601 24.875 31.0093 24.4404 31.7828 23.6668C32.5564 22.8932 32.9909 21.844 32.9909 20.75V8.375C32.9909 7.28098 32.5564 6.23177 31.7828 5.45818C31.0093 4.6846 29.9601 4.25 28.8662 4.25H26.449C25.3552 4.24977 24.3062 3.81502 23.5328 3.04138L21.8252 1.33362C21.0518 0.559984 20.0028 0.125234 18.909 0.125H14.0747C12.9809 0.125234 11.9319 0.559984 11.1585 1.33362L9.45089 3.04138C8.67752 3.81502 7.62854 4.24977 6.53468 4.25H4.11756Z" fill="#464E5F"/>
<path d="M16.4921 18.6875C15.1247 18.6875 13.8132 18.1443 12.8463 17.1773C11.8794 16.2103 11.3361 14.8988 11.3361 13.5312C11.3361 12.1637 11.8794 10.8522 12.8463 9.88523C13.8132 8.91825 15.1247 8.375 16.4921 8.375C17.8595 8.375 19.171 8.91825 20.1379 9.88523C21.1048 10.8522 21.6481 12.1637 21.6481 13.5312C21.6481 14.8988 21.1048 16.2103 20.1379 17.1773C19.171 18.1443 17.8595 18.6875 16.4921 18.6875ZM16.4921 20.75C18.4065 20.75 20.2425 19.9895 21.5962 18.6357C22.9499 17.2819 23.7104 15.4458 23.7104 13.5312C23.7104 11.6167 22.9499 9.7806 21.5962 8.42682C20.2425 7.07305 18.4065 6.3125 16.4921 6.3125C14.5777 6.3125 12.7417 7.07305 11.388 8.42682C10.0343 9.7806 9.27376 11.6167 9.27376 13.5312C9.27376 15.4458 10.0343 17.2819 11.388 18.6357C12.7417 19.9895 14.5777 20.75 16.4921 20.75ZM6.18018 9.40625C6.18018 9.67975 6.07154 9.94206 5.87815 10.1355C5.68477 10.3289 5.42248 10.4375 5.14899 10.4375C4.8755 10.4375 4.61321 10.3289 4.41983 10.1355C4.22644 9.94206 4.1178 9.67975 4.1178 9.40625C4.1178 9.13275 4.22644 8.87044 4.41983 8.67705C4.61321 8.48365 4.8755 8.375 5.14899 8.375C5.42248 8.375 5.68477 8.48365 5.87815 8.67705C6.07154 8.87044 6.18018 9.13275 6.18018 9.40625Z" fill="#464E5F"/>
</svg>
